<?xml version="1.0" encoding="UTF-8"?>
<!DOCTYPE svg PUBLIC "-//W3C//DTD SVG 1.1//EN" "http://www.w3.org/Graphics/SVG/1.1/DTD/svg11.dtd">
<!-- Creator: CorelDRAW 2019 (64-Bit) -->
<svg xmlns="http://www.w3.org/2000/svg" xml:space="preserve" width="9.82428in" height="3.57292in" version="1.1" style="shape-rendering:geometricPrecision; text-rendering:geometricPrecision; image-rendering:optimizeQuality; fill-rule:evenodd; clip-rule:evenodd"
viewBox="0 0 4936.72 1795.4"
 xmlns:xlink="http://www.w3.org/1999/xlink"
 xmlns:xodm="http://www.corel.com/coreldraw/odm/2003">
 <defs>
  <style type="text/css">
   <![CDATA[
    .str0 {stroke:#2B2A29;stroke-width:3.49;stroke-miterlimit:22.9256}
    .fil2 {fill:none}
    .fil0 {fill:#02053A}
    .fil1 {fill:white;fill-rule:nonzero}
   ]]>
  </style>
 </defs>
 <g id="Слой_x0020_1">
  <metadata id="CorelCorpID_0Corel-Layer"/>
  <rect class="fil0" y="-0" width="4936.72" height="1795.4"/>
  <path class="fil1" d="M669.63 436.56c-2.96,0 -5.45,0.07 -6.85,0.23 -3.22,5.38 -14.56,23.82 -18.13,29.33 4.75,-0.31 13.93,-0.47 26.61,-0.47 43.95,0 85.03,3.27 129.6,10.43l-15.79 15.32c-33.92,-5.29 -75.39,-8.33 -112.57,-8.33 -13.22,0 -28.24,0.47 -41.7,1.24 -3.03,3.5 -21.46,25.91 -23.87,28.55 17.81,-1.86 37.42,-2.72 60.76,-2.72 33.22,0 64.96,2.18 94.99,6.62l-15.8 15.17c-21.39,-2.64 -47.38,-4.2 -70.33,-4.2 -59.2,0 -105.87,12.84 -154.11,42.32 45.98,49.32 121.28,80.51 194.25,80.51l6.85 0 -25.52 24.67c-105.25,-19.76 -216.04,-66.05 -309.61,-129.45 -90.01,-60.76 -121.52,-78.73 -191.76,-109.76l-0.47 -18.05 47.53 20.39 16.18 -12.84 155.2 71.11 -10.12 8.09 -79.66 -34.62 -7.86 6.14 41.39 23.11c34.93,19.45 61.54,28.16 86.12,28.16 53.76,0 101.98,-38.12 133.11,-105.1 23.42,-3.04 48.38,-4.44 78.41,-4.44 61.61,0 121.44,5.92 189.19,18.6l-16.49 15.95c-42.16,-8.79 -113.81,-15.95 -159.55,-15.95zm-150.85 443.03c-201.9,0 -365.68,-163.78 -365.68,-365.68 0,-201.9 163.78,-365.68 365.68,-365.68 201.9,0 365.68,163.79 365.68,365.68 0,201.91 -163.77,365.68 -365.68,365.68zm0 -754.7c-215.13,0 -389.02,173.89 -389.02,389.02 0,215.13 173.89,389.02 389.02,389.02 215.12,0 389.02,-173.89 389.02,-389.02 0,-215.13 -173.9,-389.02 -389.02,-389.02z"/>
  <polygon class="fil1" points="1443.94,197.35 1553.87,197.35 1553.87,630.44 1817.68,630.44 1817.68,724.98 1443.94,724.98 "/>
  <path id="1" class="fil1" d="M1945.38 334.39l0 235.84c0,22.23 2.57,38.96 7.82,50.2 9.28,19.91 27.48,29.8 54.59,29.8 34.69,0 58.38,-14.17 71.2,-42.38 6.72,-15.27 10.02,-35.54 10.02,-60.58l0 -212.88 103.33 0 0 390.59 -98.93 0 0 -54.84c-0.98,1.22 -3.3,4.76 -7.21,10.75 -3.79,5.98 -8.31,11.24 -13.56,15.76 -16,14.29 -31.39,24.06 -46.29,29.31 -14.9,5.25 -32.37,7.82 -52.4,7.82 -57.65,0 -96.49,-20.76 -116.52,-62.17 -11.24,-22.96 -16.86,-56.79 -16.86,-101.49l0 -235.72 104.79 0z"/>
  <path id="2" class="fil1" d="M2413.69 192.22c6.35,0 12.21,0.12 17.47,0.37 5.25,0.25 12.34,0.61 21.37,1.1l0 82.81c-5.74,0 -15.39,-0.12 -28.82,-0.49 -13.56,-0.37 -22.84,2.56 -27.97,8.92 -5.13,6.35 -7.69,13.31 -7.69,20.88 0,7.7 0,18.69 0,32.98l66.69 0 0 71.82 -66.69 0 0 314.38 -100.4 0 0 -314.38 -57.16 0 0 -71.82 55.69 0 0 -25.28c0,-42.14 6.96,-71.08 20.89,-86.96 14.78,-22.84 50.2,-34.32 106.62,-34.32z"/>
  <path id="3" class="fil1" d="M2454.16 410.6l0 -71.82 54.23 0 0 -109.92 101.13 0 0 109.92 63.02 0 0 71.82 -63.02 0 0 206.66c0,16 2.08,26.02 6.11,30.05 4.03,3.91 16.37,5.86 37.01,5.86 3.05,0 6.35,-0.12 9.77,-0.37 3.42,-0.25 6.84,-0.61 10.14,-1.1l0 76.21 -48.24 2.2c-48.24,1.71 -81.1,-6.72 -98.69,-25.04 -11.48,-11.73 -17.22,-29.8 -17.22,-54.11l0 -240.36 -54.23 0z"/>
  <path id="4" class="fil1" d="M2932.97 324.13c24.06,0 45.8,4.15 65.47,12.58 19.54,8.31 35.66,21.13 48.24,38.35 10.75,14.53 17.22,29.56 19.66,44.95 2.32,15.51 3.54,40.55 3.54,75.48l0 229.49 -104.79 0 0 -237.68c0,-21.01 -3.54,-37.98 -10.63,-50.93 -9.16,-18.2 -26.63,-27.24 -52.4,-27.24 -26.63,0 -46.78,9.04 -60.58,27.12 -13.8,17.95 -20.76,43.72 -20.76,77.19l0 211.54 -101.86 0 0 -525.43 101.86 0 0 185.52c14.78,-22.72 31.76,-38.47 51.18,-47.51 19.3,-8.92 39.69,-13.44 61.07,-13.44z"/>
  <path id="5" class="fil1" d="M3372.12 535.42c-6.47,4.03 -13.07,7.33 -19.79,9.77 -6.6,2.57 -15.76,4.89 -27.36,7.08l-23.21 4.28c-21.74,3.79 -37.25,8.43 -46.78,13.92 -16,9.4 -23.94,23.82 -23.94,43.48 0,17.46 4.89,30.05 14.66,37.86 9.77,7.69 21.74,11.6 35.79,11.6 22.23,0 42.75,-6.47 61.43,-19.42 18.69,-12.82 28.46,-36.4 29.19,-70.6l0 -37.98zm-62.29 -47.51c18.93,-2.44 32.49,-5.37 40.67,-9.04 14.66,-6.11 21.99,-15.88 21.99,-28.95 0,-16 -5.62,-26.99 -16.86,-33.1 -11.24,-6.11 -27.72,-9.16 -49.46,-9.16 -24.43,0 -41.65,5.99 -51.79,17.83 -7.33,8.79 -12.09,20.64 -14.53,35.66l-98.2 0c2.2,-34.08 11.73,-62.17 28.7,-84.03 27.12,-34.32 73.53,-51.54 139.23,-51.54 42.87,0 80.86,8.55 114.2,25.53 33.22,16.98 49.83,48.98 49.83,95.88l0 178.69c0,12.46 0.25,27.48 0.73,45.07 0.73,13.31 2.81,22.35 6.11,27.12 3.42,4.76 8.43,8.67 15.15,11.72l0 15.39 -110.9 0c-3.05,-7.82 -5.25,-15.14 -6.47,-22.11 -1.1,-6.84 -2.08,-14.66 -2.81,-23.45 -14.17,15.27 -30.41,28.34 -48.85,39.08 -22.11,12.58 -47.02,18.93 -74.75,18.93 -35.54,0 -64.85,-10.14 -87.94,-30.29 -23.08,-20.15 -34.69,-48.73 -34.69,-85.74 0,-48 18.56,-82.69 55.82,-104.18 20.39,-11.73 50.32,-20.03 89.89,-25.04l34.93 -4.28z"/>
  <path id="6" class="fil1" d="M3769.27 325.59c40.18,0 73.04,10.63 98.56,31.75 25.53,21.25 38.35,56.18 38.35,105.16l0 262.47 -104.79 0 0 -237.07c0,-20.52 -2.69,-36.28 -8.18,-47.27 -9.89,-20.03 -28.95,-30.05 -56.92,-30.05 -34.32,0 -58.02,14.66 -70.72,43.97 -6.72,15.51 -10.02,35.3 -10.02,59.36l0 211.05 -101.86 0 0 -389.12 98.93 0 0 56.92c13.07,-20.15 25.4,-34.69 37.13,-43.48 20.88,-15.76 47.39,-23.69 79.51,-23.69z"/>
  <polygon id="7" class="fil1" points="3968.43,417.2 3968.43,334.39 4276.95,334.39 4276.95,418.66 4084.95,642.17 4283.54,642.17 4283.54,724.98 3954.51,724.98 3954.51,646.57 4148.7,417.2 "/>
  <path id="8" class="fil1" d="M4563.19 535.42c-6.47,4.03 -13.07,7.33 -19.79,9.77 -6.6,2.57 -15.76,4.89 -27.36,7.08l-23.21 4.28c-21.74,3.79 -37.25,8.43 -46.78,13.92 -16,9.4 -23.94,23.82 -23.94,43.48 0,17.46 4.89,30.05 14.66,37.86 9.77,7.69 21.74,11.6 35.79,11.6 22.23,0 42.75,-6.47 61.43,-19.42 18.69,-12.82 28.46,-36.4 29.19,-70.6l0 -37.98zm-62.29 -47.51c18.93,-2.44 32.49,-5.37 40.67,-9.04 14.66,-6.11 21.99,-15.88 21.99,-28.95 0,-16 -5.62,-26.99 -16.86,-33.1 -11.24,-6.11 -27.72,-9.16 -49.46,-9.16 -24.43,0 -41.65,5.99 -51.79,17.83 -7.33,8.79 -12.09,20.64 -14.53,35.66l-98.2 0c2.2,-34.08 11.73,-62.17 28.7,-84.03 27.12,-34.32 73.53,-51.54 139.23,-51.54 42.87,0 80.86,8.55 114.2,25.53 33.22,16.98 49.83,48.98 49.83,95.88l0 178.69c0,12.46 0.25,27.48 0.73,45.07 0.73,13.31 2.81,22.35 6.11,27.12 3.42,4.76 8.43,8.67 15.15,11.72l0 15.39 -110.9 0c-3.05,-7.82 -5.25,-15.14 -6.47,-22.11 -1.1,-6.84 -2.08,-14.66 -2.81,-23.45 -14.17,15.27 -30.41,28.34 -48.85,39.08 -22.11,12.58 -47.02,18.93 -74.75,18.93 -35.54,0 -64.85,-10.14 -87.94,-30.29 -23.08,-20.15 -34.69,-48.73 -34.69,-85.74 0,-48 18.56,-82.69 55.82,-104.18 20.39,-11.73 50.32,-20.03 89.89,-25.04l34.93 -4.28z"/>
  <polygon class="fil1" points="1863.62,1099.86 1863.62,1192.92 1705.33,1192.92 1705.33,1627.48 1594.67,1627.48 1594.67,1192.92 1436.38,1192.92 1436.38,1099.86 "/>
  <path id="1" class="fil1" d="M1965.59 1311.64c-26.26,0 -46.53,7.21 -60.95,21.74 -14.41,14.41 -23.57,34.08 -27.24,58.87l175.88 0c-1.83,-26.38 -10.87,-46.41 -27.24,-60.09 -16.24,-13.68 -36.4,-20.52 -60.46,-20.52zm0.61 -85.01c33.95,0 64.49,6.11 91.6,18.2 27.24,12.21 49.59,31.39 67.3,57.65 16,23.21 26.38,50.08 31.02,80.61 2.81,17.83 3.91,43.6 3.42,77.31l-284.33 0c1.59,39.33 15.14,66.93 40.79,82.69 15.51,9.89 34.2,14.78 56.18,14.78 23.21,0 42.01,-5.98 56.55,-17.83 7.94,-6.47 14.9,-15.39 21.01,-26.87l104.67 0c-2.69,23.21 -15.39,46.66 -37.74,70.59 -34.93,37.98 -83.79,56.92 -146.56,56.92 -51.91,0 -97.71,-16 -137.28,-48 -39.69,-32 -59.48,-84.15 -59.48,-156.33 0,-67.66 17.83,-119.45 53.62,-155.6 35.78,-36.03 82.2,-54.11 139.23,-54.11z"/>
  <path id="2" class="fil1" d="M2444 1377.59c-1.83,-14.53 -6.72,-27.72 -14.53,-39.45 -11.36,-15.76 -28.95,-23.57 -52.89,-23.57 -34.08,0 -57.4,17.1 -69.98,51.17 -6.6,18.08 -9.89,42.14 -9.89,72.18 0,28.58 3.3,51.54 9.89,68.89 11.97,32.61 34.56,48.85 67.79,48.85 23.57,0 40.31,-6.47 50.2,-19.42 9.77,-12.82 15.88,-29.68 17.95,-50.2l104.79 0c-2.32,30.9 -13.56,60.21 -33.59,87.82 -31.88,44.58 -79.02,66.81 -141.68,66.81 -62.53,0 -108.58,-18.56 -138.14,-55.57 -29.43,-37.13 -44.21,-85.25 -44.21,-144.61 0,-67.05 16.36,-119.21 48.98,-156.46 32.61,-37.25 77.68,-55.94 135.08,-55.94 48.73,0 88.79,10.99 119.82,32.98 31.15,21.98 49.46,60.82 55.21,116.52l-104.79 0z"/>
  <path id="3" class="fil1" d="M2813.74 1226.63c24.06,0 45.8,4.15 65.47,12.58 19.54,8.31 35.66,21.13 48.24,38.35 10.75,14.53 17.22,29.56 19.66,44.95 2.32,15.51 3.54,40.55 3.54,75.48l0 229.49 -104.79 0 0 -237.68c0,-21.01 -3.54,-37.98 -10.63,-50.93 -9.16,-18.2 -26.63,-27.24 -52.4,-27.24 -26.63,0 -46.78,9.04 -60.58,27.12 -13.8,17.95 -20.76,43.72 -20.76,77.19l0 211.54 -101.86 0 0 -525.43 101.86 0 0 185.52c14.78,-22.72 31.76,-38.47 51.18,-47.51 19.3,-8.92 39.69,-13.44 61.07,-13.44z"/>
  <path id="4" class="fil1" d="M3242.48 1228.1c40.18,0 73.04,10.63 98.56,31.75 25.53,21.25 38.35,56.18 38.35,105.16l0 262.47 -104.79 0 0 -237.07c0,-20.52 -2.69,-36.28 -8.18,-47.27 -9.89,-20.03 -28.95,-30.05 -56.92,-30.05 -34.32,0 -58.02,14.66 -70.72,43.97 -6.72,15.51 -10.02,35.3 -10.02,59.36l0 211.05 -101.86 0 0 -389.12 98.93 0 0 56.92c13.07,-20.15 25.4,-34.69 37.13,-43.48 20.88,-15.76 47.39,-23.69 79.51,-23.69z"/>
  <path id="5" class="fil1" d="M3557.5 1190.72l-103.33 0 0 -93.8 103.33 0 0 93.8zm-103.33 46.17l103.33 0 0 390.59 -103.33 0 0 -390.59z"/>
  <path id="6" class="fil1" d="M3868.99 1377.59c-1.83,-14.53 -6.72,-27.72 -14.53,-39.45 -11.36,-15.76 -28.95,-23.57 -52.89,-23.57 -34.08,0 -57.4,17.1 -69.98,51.17 -6.6,18.08 -9.89,42.14 -9.89,72.18 0,28.58 3.3,51.54 9.89,68.89 11.97,32.61 34.56,48.85 67.79,48.85 23.57,0 40.31,-6.47 50.2,-19.42 9.77,-12.82 15.88,-29.68 17.95,-50.2l104.79 0c-2.32,30.9 -13.56,60.21 -33.59,87.82 -31.88,44.58 -79.02,66.81 -141.68,66.81 -62.53,0 -108.58,-18.56 -138.14,-55.57 -29.43,-37.13 -44.21,-85.25 -44.21,-144.61 0,-67.05 16.36,-119.21 48.98,-156.46 32.61,-37.25 77.68,-55.94 135.08,-55.94 48.73,0 88.79,10.99 119.82,32.98 31.15,21.98 49.46,60.82 55.21,116.52l-104.79 0z"/>
  <line class="fil2 str0" x1="788.07" y1="492.2" x2="803.86" y2= "476.87" />
 </g>
</svg>
