<svg xmlns="http://www.w3.org/2000/svg" width="89" height="63" viewBox="0 0 89 63">
  <g fill="none" fill-rule="evenodd" transform="translate(-129 -340)">
    <rect width="88.2" height="62.31" x="129" y="340" fill="#FFD400" fill-rule="nonzero"/>
    <polygon fill="#FFF" fill-rule="nonzero" points="200.21 369.32 149.53 369.33 149.55 369.29 137.74 360.71 152.33 360.71 156.84 346.83 158.59 352.21 194.64 352.21 200.21 369.32"/>
    <path fill="#231F20" fill-rule="nonzero" d="M200.21,369.04 L149.54,369.04 L149.81,369.43 L149.89,369.22 L149.71,369.09 L137.9,360.51 L137.73,361.04 L152.54,361.04 L152.6,360.84 L157.11,346.96 L156.6,346.96 L158.35,352.33 L158.42,352.53 L194.6,352.53 L194.32,352.33 L199.89,369.45 L200.21,369.04 Z M200.49,369.24 L194.92,352.12 L194.85,351.92 L158.6,351.92 L158.88,352.12 L157.13,346.75 L156.85,345.9 L156.57,346.75 L152.06,360.63 L152.34,360.43 L136.85,360.43 L137.57,360.96 L149.38,369.54 L149.28,369.2 L149.13,369.59 L200.6,369.59 L200.49,369.24 Z"/>
    <polygon fill="#ED1C24" fill-rule="nonzero" points="203.01 377.92 166.95 377.92 168.65 383.17 156.84 374.59 145.04 383.17 149.53 369.33 200.21 369.32 203.01 377.92"/>
    <path fill="#231F20" fill-rule="nonzero" d="M203.01,377.64 L166.6,377.64 L166.72,378.02 L168.42,383.26 L168.87,382.93 L157.06,374.35 L156.89,374.23 L156.72,374.35 L144.91,382.93 L145.36,383.26 L149.86,369.42 L149.58,369.62 L200.25,369.62 L199.97,369.42 L202.77,378.02 L203.01,377.64 Z M203.29,377.84 L200.49,369.24 L200.42,369.04 L149.32,369.04 L149.26,369.24 L144.76,383.08 L144.48,383.93 L145.2,383.4 L157.01,374.82 L156.67,374.82 L168.48,383.4 L169.2,383.93 L168.92,383.08 L167.22,377.84 L166.94,378.22 L203.4,378.22 L203.29,377.84 Z"/>
    <polygon fill="#00AEEF" fill-rule="nonzero" points="152.33 360.71 197.41 360.71 200.21 369.32 149.53 369.33 149.55 369.29 137.74 360.71 152.33 360.71"/>
    <path fill="#231F20" fill-rule="nonzero" d="M152.34,361.01 L197.41,361.01 L197.13,360.81 L199.93,369.43 L200.21,369.05 L149.54,369.05 L149.81,369.44 L149.89,369.23 L149.71,369.1 L137.9,360.52 L137.73,361.05 L152.34,361.01 Z M152.34,360.43 L136.85,360.43 L137.57,360.96 L149.38,369.54 L149.28,369.2 L149.13,369.59 L200.6,369.59 L200.48,369.21 L197.68,360.59 L197.61,360.39 L152.34,360.39 L152.34,360.43 Z"/>
    <rect width="1.49" height="1" x="172.906" y="390.145" fill="#231F20" fill-rule="nonzero" transform="rotate(-89.83 173.65 390.645)"/>
    <rect width="1" height="1.49" x="143.648" y="384.933" fill="#231F20" fill-rule="nonzero" transform="rotate(-.15 144.148 385.678)"/>
    <polygon fill="#231F20" fill-rule="nonzero" points="143.99 395.64 143.99 394.15 143.73 394.16 143.74 395.64"/>
    <polygon fill="#231F20" fill-rule="nonzero" points="153.82 394.15 153.82 395.64 154.07 395.64 154.08 394.16"/>
    <polygon fill="#231F20" fill-rule="nonzero" points="193.31 393.83 193.12 394.01 193.29 394.2 193.49 394.01"/>
    <path fill="#231F20" d="M193.21,394.11 C192.253129,395.048385 190.979431,395.594256 189.64,395.64 L164.25,395.64 L164.25,386.92 L159.06,396.21 L153.38,387.03 L146.22,394.16 L153.95,394.16 L153.95,395.64 L143.87,395.64 L143.87,394.16 L151.73,386.44 L143.78,386.44 L143.78,384.95 L153.9,384.95 L158.97,393.56 L163.67,384.95 L173.53,384.95 L173.53,386.44 L165.73,386.44 L165.73,389.9 L173.27,389.9 L173.27,391.39 L165.72,391.39 L165.72,394.16 L174.6,394.16 L182.32,386.44 L174.76,386.44 L174.76,384.95 L189.6,384.95 C192.492105,385.031116 194.795729,387.396761 194.8,390.29 C194.798602,390.56808 194.775195,390.845614 194.73,391.12 L194.97,390.68 L198.08,384.5 L204.51,395.62 L202.79,395.62 L201.91,394.14 L195.02,394.14 L194.24,395.62 L192.46,395.62 L193.14,394.27 L193.2,394.08 L193.21,394.11 Z M176.79,394.16 L184.54,394.16 L184.54,386.44 L176.79,394.16 Z M189.51,394.16 C191.573668,394.055132 193.193086,392.35133 193.193086,390.285 C193.193086,388.21867 191.573668,386.514868 189.51,386.41 L186.05,386.41 L186.05,394.13 L189.51,394.13 L189.51,394.16 Z M195.62,392.67 L201.08,392.67 L198.19,387.67 L195.61,392.67 L195.62,392.67 Z"/>
    <path fill="#231F20" fill-rule="nonzero" d="M193.12,394.02 C192.187852,394.935431 190.945789,395.467234 189.64,395.51 L164.25,395.51 L164.38,395.64 L164.38,386.42 L164.14,386.85 L158.95,396.14 L159.17,396.14 L153.49,386.96 L153.4,386.82 L153.29,386.93 L146.13,394.06 L145.91,394.28 L153.91,394.28 L153.78,394.15 L153.78,395.63 L153.91,395.5 L143.87,395.5 L144,395.63 L144,394.15 L144,394.24 L151.86,386.52 L152.08,386.3 L143.82,386.3 L143.95,386.43 L143.95,384.94 L143.82,385.07 L153.94,385.07 L153.83,385.01 L158.9,393.62 L159.01,393.81 L159.12,393.61 L163.82,385 L163.71,385.07 L173.57,385.07 L173.44,384.94 L173.44,386.43 L173.57,386.3 L165.6,386.3 L165.6,390.02 L173.27,390.02 L173.14,389.89 L173.14,391.38 L173.27,391.25 L165.6,391.25 L165.6,394.25 L174.69,394.25 L182.41,386.53 L182.63,386.31 L174.76,386.31 L174.89,386.44 L174.89,384.95 L174.76,385.08 L189.6,385.08 C191.093407,385.12285 192.496556,385.804757 193.453005,386.952496 C194.409454,388.100235 194.827155,389.603348 194.6,391.08 L194.84,391.16 L195.08,390.72 L198.19,384.54 L197.96,384.54 L204.39,395.66 L204.5,395.47 L202.78,395.47 L202.89,395.53 L202.01,394.05 L202.01,393.99 L195.01,393.99 L195.01,394.06 L194.23,395.54 L194.34,395.47 L192.56,395.47 L192.67,395.66 L193.35,394.31 L193.41,394.12 L193.12,394.02 Z M193.12,394.02 L193.06,394.21 L192.38,395.56 L192.29,395.75 L194.35,395.75 L194.35,395.68 L195.13,394.2 L195.02,394.27 L201.91,394.27 L201.8,394.21 L202.68,395.69 L202.68,395.75 L204.68,395.75 L204.57,395.56 L198.14,384.44 L198.02,384.23 L197.91,384.44 L194.8,390.62 L194.57,391.05 L194.81,391.13 C195.057506,389.581514 194.628528,388.001272 193.631984,386.7905 C192.63544,385.579728 191.167181,384.854881 189.6,384.8 L174.6,384.8 L174.6,386.55 L182.29,386.55 L182.2,386.33 L174.48,394.05 L174.57,394.05 L165.67,394.05 L165.8,394.18 L165.8,391.39 L165.67,391.52 L173.35,391.52 L173.35,389.77 L165.68,389.77 L165.81,389.9 L165.81,386.44 L165.68,386.57 L173.61,386.57 L173.61,384.82 L163.6,384.82 L163.6,384.89 L158.89,393.5 L159.11,393.5 L154.04,384.89 L154.04,384.83 L143.66,384.83 L143.66,386.58 L151.74,386.58 L151.65,386.36 L143.79,394.08 L143.79,395.74 L154.13,395.74 L154.13,394 L146.27,394 L146.36,394.22 L153.52,387.09 L153.32,387.09 L159,396.27 L159.11,396.46 L159.22,396.27 L164.41,386.98 L164.17,386.92 L164.17,395.77 L189.6,395.77 C190.973937,395.725157 192.28062,395.16464 193.26,394.2 L193.12,394.02 Z"/>
    <path fill="#231F20" fill-rule="nonzero" d="M176.79 394.29L184.66 394.29 184.66 386.13 184.44 386.35 176.69 394.07 176.47 394.29 176.79 394.29zM176.88 394.29L184.63 386.57 184.41 386.48 184.41 394.2 184.54 394.07 176.79 394.07 176.88 394.29zM189.52 394.29C191.729139 394.29 193.52 392.499139 193.52 390.29 193.52 388.080861 191.729139 386.29 189.52 386.29L185.92 386.29 185.92 394.29 186.05 394.29 189.52 394.29zM189.52 394.03L186.06 394.03 186.19 394.16 186.19 386.44 186.06 386.57 189.52 386.57C191.513172 386.67303 193.076415 388.319167 193.076415 390.315 193.076415 392.310833 191.513172 393.95697 189.52 394.06L189.52 394.03zM195.6 392.82L201.28 392.82 201.17 392.63 198.28 387.63 198.16 387.43 198.05 387.64 195.47 392.64 195.37 392.83 195.6 392.82zM195.71 392.75L198.29 387.75 198.07 387.75 200.96 392.75 201.07 392.56 195.6 392.56 195.71 392.75z"/>
    <polygon fill="#231F20" fill-rule="nonzero" points="191.54 347.44 191.54 346.7 194.73 346.7 194.73 347.44 193.6 347.44 193.6 350.51 192.7 350.51 192.7 347.44"/>
    <polygon fill="#231F20" fill-rule="nonzero" points="196.13 347.79 196.13 347.79 196.13 350.51 195.23 350.51 195.23 346.7 196.49 346.7 197.4 349.32 198.31 346.7 199.57 346.7 199.57 350.51 198.6 350.51 198.6 347.79 198.6 347.79 197.6 350.51 197 350.51"/>
  </g>
</svg>
