<?xml version="1.0" encoding="UTF-8"?>
<!DOCTYPE svg PUBLIC "-//W3C//DTD SVG 1.1//EN" "http://www.w3.org/Graphics/SVG/1.1/DTD/svg11.dtd">
<!-- Creator: CorelDRAW 2019 (64-Bit) -->
<svg xmlns="http://www.w3.org/2000/svg" xml:space="preserve" width="9.82428in" height="3.57292in" version="1.1" style="shape-rendering:geometricPrecision; text-rendering:geometricPrecision; image-rendering:optimizeQuality; fill-rule:evenodd; clip-rule:evenodd"
viewBox="0 0 2220.44 807.53"
 xmlns:xlink="http://www.w3.org/1999/xlink"
 xmlns:xodm="http://www.corel.com/coreldraw/odm/2003">
 <defs>
  <style type="text/css">
   <![CDATA[
    .str0 {stroke:#2B2A29;stroke-width:1.57;stroke-miterlimit:22.9256}
    .fil2 {fill:none}
    .fil0 {fill:white}
    .fil1 {fill:#02053A;fill-rule:nonzero}
   ]]>
  </style>
 </defs>
 <g id="Слой_x0020_1">
  <metadata id="CorelCorpID_0Corel-Layer"/>
  <rect class="fil0" y="-0" width="2220.44" height="807.53"/>
  <path class="fil1" d="M301.18 196.35c-1.33,0 -2.45,0.03 -3.08,0.1 -1.45,2.42 -6.55,10.71 -8.15,13.19 2.13,-0.14 6.26,-0.21 11.97,-0.21 19.77,0 38.24,1.47 58.29,4.69l-7.1 6.89c-15.26,-2.38 -33.91,-3.75 -50.63,-3.75 -5.95,0 -12.7,0.21 -18.76,0.56 -1.36,1.57 -9.65,11.65 -10.74,12.84 8.01,-0.84 16.83,-1.22 27.33,-1.22 14.94,0 29.22,0.98 42.72,2.98l-7.11 6.82c-9.62,-1.19 -21.31,-1.89 -31.63,-1.89 -26.63,0 -47.62,5.77 -69.31,19.04 20.68,22.18 54.55,36.21 87.37,36.21l3.08 0 -11.48 11.1c-47.34,-8.89 -97.17,-29.71 -139.26,-58.23 -40.49,-27.33 -54.66,-35.41 -86.25,-49.37l-0.21 -8.12 21.38 9.17 7.28 -5.77 69.81 31.98 -4.55 3.64 -35.83 -15.57 -3.53 2.76 18.61 10.39c15.71,8.75 27.68,12.67 38.73,12.67 24.18,0 45.87,-17.15 59.87,-47.27 10.53,-1.37 21.76,-2 35.27,-2 27.71,0 54.62,2.66 85.1,8.37l-7.42 7.17c-18.96,-3.96 -51.19,-7.17 -71.76,-7.17zm-67.85 199.27c-90.81,0 -164.47,-73.66 -164.47,-164.48 0,-90.81 73.66,-164.48 164.47,-164.48 90.81,0 164.47,73.67 164.47,164.48 0,90.81 -73.66,164.48 -164.47,164.48zm0 -339.45c-96.76,0 -174.97,78.21 -174.97,174.97 0,96.76 78.21,174.97 174.97,174.97 96.76,0 174.97,-78.21 174.97,-174.97 0,-96.76 -78.22,-174.97 -174.97,-174.97z"/>
  <polygon class="fil1" points="649.45,88.76 698.9,88.76 698.9,283.56 817.55,283.56 817.55,326.08 649.45,326.08 "/>
  <path id="1" class="fil1" d="M874.99 150.4l0 106.08c0,10 1.15,17.52 3.52,22.58 4.18,8.95 12.36,13.4 24.56,13.4 15.6,0 26.26,-6.37 32.03,-19.06 3.02,-6.87 4.51,-15.99 4.51,-27.25l0 -95.75 46.47 0 0 175.68 -44.5 0 0 -24.67c-0.44,0.55 -1.48,2.14 -3.24,4.83 -1.7,2.69 -3.74,5.05 -6.1,7.09 -7.2,6.43 -14.12,10.82 -20.82,13.18 -6.7,2.36 -14.56,3.52 -23.57,3.52 -25.93,0 -43.4,-9.34 -52.41,-27.96 -5.05,-10.33 -7.58,-25.54 -7.58,-45.65l0 -106.02 47.13 0z"/>
  <path id="2" class="fil1" d="M1085.63 86.46c2.86,0 5.49,0.06 7.86,0.16 2.36,0.11 5.55,0.27 9.61,0.49l0 37.25c-2.58,0 -6.92,-0.06 -12.96,-0.22 -6.1,-0.16 -10.27,1.15 -12.58,4.01 -2.31,2.86 -3.46,5.99 -3.46,9.39 0,3.46 0,8.41 0,14.83l29.99 0 0 32.3 -29.99 0 0 141.4 -45.16 0 0 -141.4 -25.71 0 0 -32.3 25.05 0 0 -11.37c0,-18.95 3.13,-31.97 9.39,-39.11 6.65,-10.27 22.58,-15.44 47.96,-15.44z"/>
  <path id="3" class="fil1" d="M1103.83 184.68l0 -32.3 24.39 0 0 -49.44 45.49 0 0 49.44 28.35 0 0 32.3 -28.35 0 0 92.95c0,7.2 0.93,11.7 2.75,13.51 1.81,1.76 7.36,2.64 16.65,2.64 1.37,0 2.86,-0.06 4.39,-0.16 1.54,-0.11 3.08,-0.27 4.56,-0.49l0 34.28 -21.7 0.99c-21.7,0.77 -36.48,-3.02 -44.39,-11.26 -5.16,-5.27 -7.75,-13.4 -7.75,-24.34l0 -108.11 -24.39 0z"/>
  <path id="4" class="fil1" d="M1319.19 145.79c10.82,0 20.6,1.87 29.45,5.66 8.79,3.74 16.04,9.5 21.7,17.25 4.83,6.54 7.75,13.29 8.84,20.22 1.04,6.98 1.59,18.24 1.59,33.95l0 103.22 -47.13 0 0 -106.9c0,-9.45 -1.59,-17.08 -4.78,-22.91 -4.12,-8.18 -11.98,-12.25 -23.57,-12.25 -11.98,0 -21.04,4.07 -27.25,12.2 -6.21,8.08 -9.34,19.67 -9.34,34.72l0 95.15 -45.81 0 0 -236.33 45.81 0 0 83.44c6.65,-10.22 14.28,-17.3 23.02,-21.37 8.68,-4.01 17.85,-6.04 27.47,-6.04z"/>
  <path id="5" class="fil1" d="M1516.71 240.82c-2.91,1.81 -5.88,3.3 -8.9,4.39 -2.97,1.15 -7.09,2.2 -12.31,3.19l-10.44 1.92c-9.78,1.7 -16.75,3.79 -21.04,6.26 -7.2,4.23 -10.77,10.71 -10.77,19.56 0,7.86 2.2,13.51 6.59,17.03 4.39,3.46 9.78,5.22 16.1,5.22 10,0 19.23,-2.91 27.63,-8.73 8.41,-5.77 12.8,-16.37 13.13,-31.75l0 -17.08zm-28.02 -21.37c8.51,-1.1 14.61,-2.42 18.29,-4.06 6.59,-2.75 9.89,-7.14 9.89,-13.02 0,-7.2 -2.53,-12.14 -7.58,-14.89 -5.05,-2.75 -12.47,-4.12 -22.25,-4.12 -10.99,0 -18.73,2.69 -23.29,8.02 -3.3,3.96 -5.44,9.28 -6.54,16.04l-44.17 0c0.99,-15.33 5.27,-27.96 12.91,-37.8 12.2,-15.44 33.07,-23.18 62.62,-23.18 19.28,0 36.37,3.84 51.36,11.48 14.94,7.64 22.41,22.03 22.41,43.12l0 80.37c0,5.6 0.11,12.36 0.33,20.27 0.33,5.99 1.26,10.05 2.75,12.2 1.54,2.14 3.79,3.9 6.81,5.27l0 6.92 -49.88 0c-1.37,-3.52 -2.36,-6.81 -2.91,-9.94 -0.49,-3.08 -0.93,-6.59 -1.26,-10.55 -6.37,6.87 -13.68,12.74 -21.97,17.58 -9.94,5.66 -21.15,8.51 -33.62,8.51 -15.99,0 -29.17,-4.56 -39.55,-13.62 -10.38,-9.06 -15.6,-21.92 -15.6,-38.56 0,-21.59 8.35,-37.19 25.11,-46.86 9.17,-5.27 22.63,-9.01 40.43,-11.26l15.71 -1.92z"/>
  <path id="6" class="fil1" d="M1695.34 146.45c18.07,0 32.85,4.78 44.33,14.28 11.48,9.56 17.25,25.27 17.25,47.3l0 118.05 -47.13 0 0 -106.63c0,-9.23 -1.21,-16.32 -3.68,-21.26 -4.45,-9.01 -13.02,-13.51 -25.6,-13.51 -15.44,0 -26.09,6.59 -31.81,19.78 -3.02,6.98 -4.51,15.88 -4.51,26.7l0 94.93 -45.81 0 0 -175.02 44.5 0 0 25.6c5.88,-9.06 11.43,-15.6 16.7,-19.56 9.39,-7.09 21.31,-10.66 35.76,-10.66z"/>
  <polygon id="7" class="fil1" points="1784.92,187.65 1784.92,150.4 1923.68,150.4 1923.68,188.31 1837.32,288.83 1926.65,288.83 1926.65,326.08 1778.65,326.08 1778.65,290.81 1866,187.65 "/>
  <path id="8" class="fil1" d="M2052.43 240.82c-2.91,1.81 -5.88,3.3 -8.9,4.39 -2.97,1.15 -7.09,2.2 -12.31,3.19l-10.44 1.92c-9.78,1.7 -16.75,3.79 -21.04,6.26 -7.2,4.23 -10.77,10.71 -10.77,19.56 0,7.86 2.2,13.51 6.59,17.03 4.39,3.46 9.78,5.22 16.1,5.22 10,0 19.23,-2.91 27.63,-8.73 8.41,-5.77 12.8,-16.37 13.13,-31.75l0 -17.08zm-28.02 -21.37c8.51,-1.1 14.61,-2.42 18.29,-4.06 6.59,-2.75 9.89,-7.14 9.89,-13.02 0,-7.2 -2.53,-12.14 -7.58,-14.89 -5.05,-2.75 -12.47,-4.12 -22.25,-4.12 -10.99,0 -18.73,2.69 -23.29,8.02 -3.3,3.96 -5.44,9.28 -6.54,16.04l-44.17 0c0.99,-15.33 5.27,-27.96 12.91,-37.8 12.2,-15.44 33.07,-23.18 62.62,-23.18 19.28,0 36.37,3.84 51.36,11.48 14.94,7.64 22.41,22.03 22.41,43.12l0 80.37c0,5.6 0.11,12.36 0.33,20.27 0.33,5.99 1.26,10.05 2.75,12.2 1.54,2.14 3.79,3.9 6.81,5.27l0 6.92 -49.88 0c-1.37,-3.52 -2.36,-6.81 -2.91,-9.94 -0.49,-3.08 -0.93,-6.59 -1.26,-10.55 -6.37,6.87 -13.68,12.74 -21.97,17.58 -9.94,5.66 -21.15,8.51 -33.62,8.51 -15.99,0 -29.17,-4.56 -39.55,-13.62 -10.38,-9.06 -15.6,-21.92 -15.6,-38.56 0,-21.59 8.35,-37.19 25.11,-46.86 9.17,-5.27 22.63,-9.01 40.43,-11.26l15.71 -1.92z"/>
  <polygon class="fil1" points="838.22,494.69 838.22,536.55 767.02,536.55 767.02,732.01 717.25,732.01 717.25,536.55 646.06,536.55 646.06,494.69 "/>
  <path id="1" class="fil1" d="M884.08 589.95c-11.81,0 -20.93,3.24 -27.41,9.78 -6.48,6.48 -10.6,15.33 -12.25,26.48l79.11 0c-0.82,-11.87 -4.89,-20.88 -12.25,-27.03 -7.31,-6.15 -16.37,-9.23 -27.19,-9.23zm0.27 -38.23c15.27,0 29.01,2.75 41.2,8.19 12.25,5.49 22.3,14.12 30.27,25.93 7.2,10.44 11.87,22.52 13.95,36.26 1.26,8.02 1.76,19.61 1.54,34.77l-127.89 0c0.71,17.69 6.81,30.1 18.35,37.19 6.98,4.45 15.38,6.65 25.27,6.65 10.44,0 18.9,-2.69 25.43,-8.02 3.57,-2.91 6.7,-6.92 9.45,-12.09l47.08 0c-1.21,10.44 -6.92,20.98 -16.97,31.75 -15.71,17.08 -37.68,25.6 -65.92,25.6 -23.35,0 -43.95,-7.2 -61.75,-21.59 -17.85,-14.39 -26.75,-37.85 -26.75,-70.32 0,-30.43 8.02,-53.73 24.12,-69.99 16.1,-16.21 36.97,-24.34 62.62,-24.34z"/>
  <path id="2" class="fil1" d="M1099.26 619.61c-0.82,-6.54 -3.02,-12.47 -6.54,-17.74 -5.11,-7.09 -13.02,-10.6 -23.79,-10.6 -15.33,0 -25.82,7.69 -31.48,23.02 -2.97,8.13 -4.45,18.95 -4.45,32.47 0,12.86 1.48,23.18 4.45,30.98 5.38,14.67 15.55,21.97 30.49,21.97 10.6,0 18.13,-2.91 22.58,-8.73 4.39,-5.77 7.14,-13.35 8.08,-22.58l47.13 0c-1.04,13.9 -6.1,27.08 -15.11,39.5 -14.34,20.05 -35.54,30.05 -63.72,30.05 -28.13,0 -48.84,-8.35 -62.13,-25 -13.24,-16.7 -19.89,-38.34 -19.89,-65.04 0,-30.16 7.36,-53.62 22.03,-70.37 14.67,-16.76 34.94,-25.16 60.76,-25.16 21.92,0 39.94,4.94 53.89,14.83 14.01,9.89 22.25,27.36 24.83,52.41l-47.13 0z"/>
  <path id="3" class="fil1" d="M1265.56 551.71c10.82,0 20.6,1.87 29.45,5.66 8.79,3.74 16.04,9.5 21.7,17.25 4.83,6.54 7.75,13.29 8.84,20.22 1.04,6.98 1.59,18.24 1.59,33.95l0 103.22 -47.13 0 0 -106.9c0,-9.45 -1.59,-17.08 -4.78,-22.91 -4.12,-8.18 -11.98,-12.25 -23.57,-12.25 -11.98,0 -21.04,4.07 -27.25,12.2 -6.21,8.08 -9.34,19.67 -9.34,34.72l0 95.15 -45.81 0 0 -236.33 45.81 0 0 83.44c6.65,-10.22 14.28,-17.3 23.02,-21.37 8.68,-4.01 17.85,-6.04 27.47,-6.04z"/>
  <path id="4" class="fil1" d="M1458.4 552.37c18.07,0 32.85,4.78 44.33,14.28 11.48,9.56 17.25,25.27 17.25,47.3l0 118.05 -47.13 0 0 -106.63c0,-9.23 -1.21,-16.32 -3.68,-21.26 -4.45,-9.01 -13.02,-13.51 -25.6,-13.51 -15.44,0 -26.09,6.59 -31.81,19.78 -3.02,6.98 -4.51,15.88 -4.51,26.7l0 94.93 -45.81 0 0 -175.02 44.5 0 0 25.6c5.88,-9.06 11.43,-15.6 16.7,-19.56 9.39,-7.09 21.31,-10.66 35.76,-10.66z"/>
  <path id="5" class="fil1" d="M1600.09 535.56l-46.47 0 0 -42.19 46.47 0 0 42.19zm-46.47 20.77l46.47 0 0 175.68 -46.47 0 0 -175.68z"/>
  <path id="6" class="fil1" d="M1740.19 619.61c-0.82,-6.54 -3.02,-12.47 -6.54,-17.74 -5.11,-7.09 -13.02,-10.6 -23.79,-10.6 -15.33,0 -25.82,7.69 -31.48,23.02 -2.97,8.13 -4.45,18.95 -4.45,32.47 0,12.86 1.48,23.18 4.45,30.98 5.38,14.67 15.55,21.97 30.49,21.97 10.6,0 18.13,-2.91 22.58,-8.73 4.39,-5.77 7.14,-13.35 8.08,-22.58l47.13 0c-1.04,13.9 -6.1,27.08 -15.11,39.5 -14.34,20.05 -35.54,30.05 -63.72,30.05 -28.13,0 -48.84,-8.35 -62.13,-25 -13.24,-16.7 -19.89,-38.34 -19.89,-65.04 0,-30.16 7.36,-53.62 22.03,-70.37 14.67,-16.76 34.94,-25.16 60.76,-25.16 21.92,0 39.94,4.94 53.89,14.83 14.01,9.89 22.25,27.36 24.83,52.41l-47.13 0z"/>
  <line class="fil2 str0" x1="354.46" y1="221.38" x2="361.56" y2= "214.49" />
 </g>
</svg>
